# xmcd
#
# Track frame offsets:
#	150
#	14369
#	29934
#	45964
#	61129
#	77426
#	91010
#	101387
#	122088
#	133929
#	149318
#	163309
#	176006
#	190117
#	199766
#	204899
#	221188
#	228888
#
# Disc length: 3197 seconds
#
# Revision: 0
# Processed by: cddbd v1.5.2PL0 Copyright (c) Steve Scherf et al.
# Submitted via: EasyCDDAExtractor 16.0.8.2
#
DISCID=f50c7b12
DTITLE=Συλλογικός δίσκος - Δημοτικό πανηγύρι 2
DYEAR=2015
DGENRE=Παραδοσιακή
TTITLE0=Καψάλης Γιάννης - Το μαντήλι [Αναστασίου]
TTITLE1=Βελισσάρης Γιώργος - Φιλενάδα [Κ. Πίτσος-Γ. Πίας]
TTITLE2=Γρίβα Γιώτα - Απόψε που σε είδα [Κ. Πίτσος]
TTITLE3=Πυργάκη Φιλιώ - Μην ανησυχείς καρδιά μου [Βασ. Φωτίου-Ηλ. Μπακάλης]
TTITLE4=Γρίβα Γιώτα - Είδα μάτια χίλια δυό [Κ. Πίτσος-Δημ. Κατσαούνης]
TTITLE5=Σιέττος Γιάννης - Μένα με κάνουνε καλά [Κ. Πίστος-Μαρία Παναγοπούλου]
TTITLE6=Πυργάκη Φιλιώ - Απόψε που κοιμόμουνα [Φιλιώ Πυργάκη]
TTITLE7=Γρίβα Γιώτα - Δυό μάτια χρυσοπράσινα [Γ. Σιέττος-Δημ. Κατσαούνης]
TTITLE8=Βέρρα Χαρά - Στην ευχή, στο καλό [Κ. Πίτσος-Σωτ. Κόρδας]
TTITLE9=Καψάλης Γιάννης - Έπαθα ζημιά [Γ. Καψάλης-Μ.Τσίκος-Δ.Βαρσαμίδης]
TTITLE10=Βελισσάρης Γιώργος - Πίνω, όλο πίνω [Κ. Πίτσος-Ρούλα Βλάχου]
TTITLE11=Σιέττος Γιάννης - Αν μ' αγαπούσες λίγο [Κ. Πίτσος-Γ. Σιέττος]
TTITLE12=Βέρρα Χαρά - Θα κάνω ζημιές-Δεν μιλούν οι μαργαρίτες[Πίτσος-Κόρδας]
TTITLE13=Θώδη Έφη - Δώσ' μου το κορίτσι θεία [Ν.Γκιζιώτης-Γ.Πολύζος-Β.Σούκας]
TTITLE14=Θώδη Έφη - Όλες οι μελαχροινές [Γ. Παπασιδέρης-Χαρ. Βασιλειάδης]
TTITLE15=Βέρρα Ξένια - Μέσ' στ' αμπέλι-Σταυρούλα-Παπούτσια σκονισμένα[μ. παρ.]
TTITLE16=Κατσιγιάννη Τζένη - Ο κόκορας [παραδοσιακό]
TTITLE17=Βέρρα Χαρά - Όταν τον δείτε [Ν. Χατζόπουλος-Χ. Βαριανός]
EXTD=
EXTT0=
EXTT1=
EXTT2=
EXTT3=
EXTT4=
EXTT5=
EXTT6=
EXTT7=
EXTT8=
EXTT9=
EXTT10=
EXTT11=
EXTT12=
EXTT13=
EXTT14=
EXTT15=
EXTT16=
EXTT17=
PLAYORDER=
